<mxfile host="app.diagrams.net" modified="2024-04-24T19:43:15.708Z" agent="Mozilla/5.0 (Windows NT 10.0; Win64; x64) AppleWebKit/537.36 (KHTML, like Gecko) Chrome/124.0.0.0 Safari/537.36" etag="Utp9xVIlFpAom3c2UoQ4" version="24.3.0" type="device">
  <diagram name="Page-1" id="l3mI_F_hXY_SbKf0R1zO">
    <mxGraphModel dx="2074" dy="1098" grid="1" gridSize="10" guides="1" tooltips="1" connect="1" arrows="1" fold="1" page="1" pageScale="1" pageWidth="850" pageHeight="1100" math="0" shadow="0">
      <root>
        <mxCell id="0" />
        <mxCell id="1" parent="0" />
        <mxCell id="ZHPNmNOWgWmYUe0Lpc55-1" value="Αρχή στην διεύθυνση μνήμης 800" style="ellipse;whiteSpace=wrap;html=1;" parent="1" vertex="1">
          <mxGeometry x="310" y="30" width="170" height="120" as="geometry" />
        </mxCell>
        <mxCell id="ZHPNmNOWgWmYUe0Lpc55-2" value="B&amp;lt;-01&lt;div&gt;A&amp;lt;-2000H (DIP SWITCHESE)&lt;/div&gt;" style="rounded=1;whiteSpace=wrap;html=1;" parent="1" vertex="1">
          <mxGeometry x="298.73" y="180" width="192.5" height="40" as="geometry" />
        </mxCell>
        <mxCell id="ZHPNmNOWgWmYUe0Lpc55-3" value="" style="endArrow=classic;html=1;rounded=0;exitX=0.5;exitY=1;exitDx=0;exitDy=0;entryX=0.5;entryY=0;entryDx=0;entryDy=0;" parent="1" source="ZHPNmNOWgWmYUe0Lpc55-1" target="ZHPNmNOWgWmYUe0Lpc55-2" edge="1">
          <mxGeometry width="50" height="50" relative="1" as="geometry">
            <mxPoint x="400" y="590" as="sourcePoint" />
            <mxPoint x="450" y="540" as="targetPoint" />
          </mxGeometry>
        </mxCell>
        <mxCell id="ZHPNmNOWgWmYUe0Lpc55-27" style="edgeStyle=orthogonalEdgeStyle;rounded=0;orthogonalLoop=1;jettySize=auto;html=1;exitX=0.5;exitY=1;exitDx=0;exitDy=0;" parent="1" edge="1">
          <mxGeometry relative="1" as="geometry">
            <mxPoint x="394" y="390" as="targetPoint" />
            <mxPoint x="394.4749999999999" y="340" as="sourcePoint" />
          </mxGeometry>
        </mxCell>
        <mxCell id="ZHPNmNOWgWmYUe0Lpc55-28" value="&lt;font style=&quot;font-size: 14px;&quot;&gt;ΟΧΙ&lt;/font&gt;" style="edgeLabel;html=1;align=center;verticalAlign=middle;resizable=0;points=[];" parent="ZHPNmNOWgWmYUe0Lpc55-27" vertex="1" connectable="0">
          <mxGeometry x="-0.1553" y="-1" relative="1" as="geometry">
            <mxPoint as="offset" />
          </mxGeometry>
        </mxCell>
        <mxCell id="ZHPNmNOWgWmYUe0Lpc55-26" style="edgeStyle=orthogonalEdgeStyle;rounded=0;orthogonalLoop=1;jettySize=auto;html=1;exitX=0.5;exitY=1;exitDx=0;exitDy=0;entryX=0.5;entryY=0;entryDx=0;entryDy=0;" parent="1" source="ZHPNmNOWgWmYUe0Lpc55-13" edge="1">
          <mxGeometry relative="1" as="geometry">
            <mxPoint x="388.75" y="890" as="targetPoint" />
          </mxGeometry>
        </mxCell>
        <mxCell id="ZHPNmNOWgWmYUe0Lpc55-13" value="&lt;div&gt;&lt;span style=&quot;text-wrap: nowrap;&quot;&gt;Α=A&#39;&lt;/span&gt;&lt;br&gt;&lt;/div&gt;&lt;div&gt;&lt;span style=&quot;text-wrap: nowrap;&quot;&gt;(LEDS) 3000H&amp;lt;-A&lt;/span&gt;&lt;/div&gt;" style="rounded=1;whiteSpace=wrap;html=1;" parent="1" vertex="1">
          <mxGeometry x="297.51" y="760" width="182.49" height="70" as="geometry" />
        </mxCell>
        <mxCell id="ZHPNmNOWgWmYUe0Lpc55-15" value="Τέλος" style="ellipse;whiteSpace=wrap;html=1;" parent="1" vertex="1">
          <mxGeometry x="328.75" y="890" width="120" height="80" as="geometry" />
        </mxCell>
        <mxCell id="ZHPNmNOWgWmYUe0Lpc55-19" value="" style="endArrow=none;html=1;rounded=0;" parent="1" edge="1">
          <mxGeometry width="50" height="50" relative="1" as="geometry">
            <mxPoint x="443.12" y="290" as="sourcePoint" />
            <mxPoint x="600" y="289.5" as="targetPoint" />
          </mxGeometry>
        </mxCell>
        <mxCell id="ZHPNmNOWgWmYUe0Lpc55-20" value="&lt;font style=&quot;font-size: 14px;&quot;&gt;ΝΑΙ&lt;/font&gt;&lt;div style=&quot;font-size: 14px;&quot;&gt;&lt;br&gt;&lt;/div&gt;" style="edgeLabel;html=1;align=center;verticalAlign=middle;resizable=0;points=[];" parent="ZHPNmNOWgWmYUe0Lpc55-19" vertex="1" connectable="0">
          <mxGeometry x="0.1727" y="-4" relative="1" as="geometry">
            <mxPoint as="offset" />
          </mxGeometry>
        </mxCell>
        <mxCell id="ZHPNmNOWgWmYUe0Lpc55-51" style="edgeStyle=orthogonalEdgeStyle;rounded=0;orthogonalLoop=1;jettySize=auto;html=1;exitX=0.5;exitY=1;exitDx=0;exitDy=0;entryX=0.5;entryY=0;entryDx=0;entryDy=0;" parent="1" source="ZHPNmNOWgWmYUe0Lpc55-31" target="ZHPNmNOWgWmYUe0Lpc55-32" edge="1">
          <mxGeometry relative="1" as="geometry" />
        </mxCell>
        <mxCell id="ZHPNmNOWgWmYUe0Lpc55-31" value="ΠΕΡΙΣΤΡΟΦΗ ΤΟΥ Α ΔΕΞΙΑ ΚΑΤΑ ΕΝΑ BIT" style="rounded=1;whiteSpace=wrap;html=1;" parent="1" vertex="1">
          <mxGeometry x="322.48" y="390" width="145" height="80" as="geometry" />
        </mxCell>
        <mxCell id="ZHPNmNOWgWmYUe0Lpc55-37" style="edgeStyle=orthogonalEdgeStyle;rounded=0;orthogonalLoop=1;jettySize=auto;html=1;exitX=0.5;exitY=1;exitDx=0;exitDy=0;entryX=0.5;entryY=0;entryDx=0;entryDy=0;" parent="1" source="ZHPNmNOWgWmYUe0Lpc55-32" target="ZHPNmNOWgWmYUe0Lpc55-35" edge="1">
          <mxGeometry relative="1" as="geometry" />
        </mxCell>
        <mxCell id="u2sHAuekURi9X6XDW6M3-5" value="&lt;font style=&quot;font-size: 14px;&quot;&gt;NAI&lt;/font&gt;" style="edgeLabel;html=1;align=center;verticalAlign=middle;resizable=0;points=[];fontSize=14;" parent="ZHPNmNOWgWmYUe0Lpc55-37" vertex="1" connectable="0">
          <mxGeometry x="-0.3137" y="-2" relative="1" as="geometry">
            <mxPoint as="offset" />
          </mxGeometry>
        </mxCell>
        <mxCell id="ZHPNmNOWgWmYUe0Lpc55-32" value="CY=1" style="rhombus;whiteSpace=wrap;html=1;" parent="1" vertex="1">
          <mxGeometry x="350.01" y="500" width="80" height="80" as="geometry" />
        </mxCell>
        <mxCell id="ZHPNmNOWgWmYUe0Lpc55-36" style="edgeStyle=orthogonalEdgeStyle;rounded=0;orthogonalLoop=1;jettySize=auto;html=1;exitX=0.5;exitY=1;exitDx=0;exitDy=0;entryX=0.5;entryY=0;entryDx=0;entryDy=0;" parent="1" source="ZHPNmNOWgWmYUe0Lpc55-35" target="ZHPNmNOWgWmYUe0Lpc55-13" edge="1">
          <mxGeometry relative="1" as="geometry" />
        </mxCell>
        <mxCell id="ZHPNmNOWgWmYUe0Lpc55-35" value="A&amp;lt;-B" style="rounded=1;whiteSpace=wrap;html=1;" parent="1" vertex="1">
          <mxGeometry x="328.75" y="640" width="120" height="50" as="geometry" />
        </mxCell>
        <mxCell id="ZHPNmNOWgWmYUe0Lpc55-45" value="" style="endArrow=none;html=1;rounded=0;" parent="1" edge="1">
          <mxGeometry width="50" height="50" relative="1" as="geometry">
            <mxPoint x="130" y="540" as="sourcePoint" />
            <mxPoint x="348.77" y="540" as="targetPoint" />
          </mxGeometry>
        </mxCell>
        <mxCell id="ZHPNmNOWgWmYUe0Lpc55-46" value="ΟΧΙ" style="edgeLabel;html=1;align=center;verticalAlign=middle;resizable=0;points=[];fontSize=14;" parent="ZHPNmNOWgWmYUe0Lpc55-45" vertex="1" connectable="0">
          <mxGeometry x="-0.0167" y="1" relative="1" as="geometry">
            <mxPoint as="offset" />
          </mxGeometry>
        </mxCell>
        <mxCell id="u2sHAuekURi9X6XDW6M3-8" style="edgeStyle=orthogonalEdgeStyle;rounded=0;orthogonalLoop=1;jettySize=auto;html=1;exitX=0.5;exitY=1;exitDx=0;exitDy=0;" parent="1" source="ZHPNmNOWgWmYUe0Lpc55-47" edge="1">
          <mxGeometry relative="1" as="geometry">
            <mxPoint x="130" y="680" as="targetPoint" />
          </mxGeometry>
        </mxCell>
        <mxCell id="ZHPNmNOWgWmYUe0Lpc55-47" value="Β&amp;lt;-Β+1" style="rounded=1;whiteSpace=wrap;html=1;" parent="1" vertex="1">
          <mxGeometry x="70" y="580" width="120" height="60" as="geometry" />
        </mxCell>
        <mxCell id="ZHPNmNOWgWmYUe0Lpc55-49" value="" style="edgeStyle=orthogonalEdgeStyle;rounded=0;orthogonalLoop=1;jettySize=auto;html=1;exitX=0.5;exitY=1;exitDx=0;exitDy=0;" parent="1" source="ZHPNmNOWgWmYUe0Lpc55-2" target="ZHPNmNOWgWmYUe0Lpc55-7" edge="1">
          <mxGeometry relative="1" as="geometry">
            <mxPoint x="395" y="370" as="targetPoint" />
            <mxPoint x="395" y="220" as="sourcePoint" />
          </mxGeometry>
        </mxCell>
        <mxCell id="ZHPNmNOWgWmYUe0Lpc55-7" value="A==0" style="rhombus;whiteSpace=wrap;html=1;" parent="1" vertex="1">
          <mxGeometry x="346.87" y="240" width="96.25" height="100" as="geometry" />
        </mxCell>
        <mxCell id="ZHPNmNOWgWmYUe0Lpc55-52" value="" style="endArrow=classic;html=1;rounded=0;entryX=0.5;entryY=0;entryDx=0;entryDy=0;" parent="1" target="ZHPNmNOWgWmYUe0Lpc55-47" edge="1">
          <mxGeometry width="50" height="50" relative="1" as="geometry">
            <mxPoint x="130" y="540" as="sourcePoint" />
            <mxPoint x="95" y="560" as="targetPoint" />
          </mxGeometry>
        </mxCell>
        <mxCell id="u2sHAuekURi9X6XDW6M3-1" value="" style="endArrow=none;html=1;rounded=0;" parent="1" edge="1">
          <mxGeometry width="50" height="50" relative="1" as="geometry">
            <mxPoint x="600" y="800" as="sourcePoint" />
            <mxPoint x="600" y="290" as="targetPoint" />
          </mxGeometry>
        </mxCell>
        <mxCell id="u2sHAuekURi9X6XDW6M3-2" value="" style="endArrow=classic;html=1;rounded=0;entryX=1;entryY=0.571;entryDx=0;entryDy=0;entryPerimeter=0;" parent="1" target="ZHPNmNOWgWmYUe0Lpc55-13" edge="1">
          <mxGeometry width="50" height="50" relative="1" as="geometry">
            <mxPoint x="600" y="800" as="sourcePoint" />
            <mxPoint x="559.9972300000002" y="812" as="targetPoint" />
          </mxGeometry>
        </mxCell>
        <mxCell id="u2sHAuekURi9X6XDW6M3-16" style="edgeStyle=orthogonalEdgeStyle;rounded=0;orthogonalLoop=1;jettySize=auto;html=1;exitX=1;exitY=0.5;exitDx=0;exitDy=0;entryX=0;entryY=0.5;entryDx=0;entryDy=0;" parent="1" source="u2sHAuekURi9X6XDW6M3-9" target="ZHPNmNOWgWmYUe0Lpc55-35" edge="1">
          <mxGeometry relative="1" as="geometry" />
        </mxCell>
        <mxCell id="u2sHAuekURi9X6XDW6M3-17" value="&lt;font style=&quot;font-size: 14px;&quot;&gt;OXI&lt;/font&gt;" style="edgeLabel;html=1;align=center;verticalAlign=middle;resizable=0;points=[];" parent="u2sHAuekURi9X6XDW6M3-16" vertex="1" connectable="0">
          <mxGeometry x="-0.4947" relative="1" as="geometry">
            <mxPoint as="offset" />
          </mxGeometry>
        </mxCell>
        <mxCell id="u2sHAuekURi9X6XDW6M3-9" value="Zero flag !=0" style="rhombus;whiteSpace=wrap;html=1;" parent="1" vertex="1">
          <mxGeometry x="90" y="680" width="80" height="80" as="geometry" />
        </mxCell>
        <mxCell id="u2sHAuekURi9X6XDW6M3-11" value="" style="endArrow=none;html=1;rounded=0;" parent="1" edge="1">
          <mxGeometry width="50" height="50" relative="1" as="geometry">
            <mxPoint x="40" y="760" as="sourcePoint" />
            <mxPoint x="130" y="760" as="targetPoint" />
          </mxGeometry>
        </mxCell>
        <mxCell id="u2sHAuekURi9X6XDW6M3-12" value="" style="endArrow=none;html=1;rounded=0;" parent="1" edge="1">
          <mxGeometry width="50" height="50" relative="1" as="geometry">
            <mxPoint x="40" y="430" as="sourcePoint" />
            <mxPoint x="40" y="760" as="targetPoint" />
          </mxGeometry>
        </mxCell>
        <mxCell id="u2sHAuekURi9X6XDW6M3-14" value="" style="endArrow=classic;html=1;rounded=0;" parent="1" edge="1">
          <mxGeometry width="50" height="50" relative="1" as="geometry">
            <mxPoint x="40" y="430" as="sourcePoint" />
            <mxPoint x="320" y="430" as="targetPoint" />
          </mxGeometry>
        </mxCell>
        <mxCell id="u2sHAuekURi9X6XDW6M3-15" value="NAI" style="edgeLabel;html=1;align=center;verticalAlign=middle;resizable=0;points=[];fontSize=14;" parent="u2sHAuekURi9X6XDW6M3-14" vertex="1" connectable="0">
          <mxGeometry y="-2" relative="1" as="geometry">
            <mxPoint as="offset" />
          </mxGeometry>
        </mxCell>
      </root>
    </mxGraphModel>
  </diagram>
</mxfile>
